<?xml version="1.0" standalone="no"?>
<!DOCTYPE svg PUBLIC "-//W3C//DTD SVG 20010904//EN"
 "http://www.w3.org/TR/2001/REC-SVG-20010904/DTD/svg10.dtd">
<svg version="1.0" xmlns="http://www.w3.org/2000/svg"
 width="48.000000pt" height="48.000000pt" viewBox="0 0 48.000000 48.000000"
 preserveAspectRatio="xMidYMid meet">

<g transform="translate(0.000000,48.000000) scale(0.100000,-0.100000)"
fill="#000000" stroke="none">
<path d="M379 396 c-82 -29 -126 -54 -132 -78 -4 -12 -11 -16 -22 -11 -13 4
-16 2 -13 -8 5 -15 21 -16 50 -4 24 10 62 -31 54 -58 -3 -12 -6 -39 -6 -59 l0
-38 -45 0 c-25 0 -45 3 -45 8 0 4 11 25 25 47 42 69 23 91 -30 35 -28 -30 -29
-30 -47 -10 -10 11 -24 20 -30 20 -6 0 -3 9 6 19 16 18 12 17 -41 -5 -32 -13
-68 -24 -80 -24 -23 0 -23 -2 -23 -115 l0 -115 240 0 240 0 0 210 c0 241 9
224 -101 186z"/>
</g>
</svg>
